<svg width="12" height="12" viewBox="0 0 12 12" fill="none" xmlns="http://www.w3.org/2000/svg">
<path d="M6.79346 0.475087C6.7348 0.357754 6.65046 0.264254 6.54046 0.194587C6.43046 0.12492 6.30946 0.0900869 6.17746 0.0900869C6.04546 0.0900869 5.92263 0.12492 5.80896 0.194587C5.69529 0.264254 5.60913 0.357754 5.55046 0.475087L4.17546 3.32409L1.08446 3.77509C0.959795 3.78975 0.846128 3.83925 0.743462 3.92359C0.640795 4.00792 0.571128 4.11242 0.534462 4.23709C0.497795 4.36175 0.494128 4.48825 0.523462 4.61659C0.552795 4.74492 0.615128 4.85309 0.710462 4.94109L2.94346 7.16309L2.41546 10.2871C2.39346 10.4191 2.40813 10.5438 2.45946 10.6611C2.5108 10.7784 2.5878 10.8774 2.69046 10.9581C2.79313 11.0388 2.91046 11.0828 3.04246 11.0901C3.17446 11.0974 3.29913 11.0718 3.41646 11.0131L6.17746 9.53909L8.93846 11.0131C9.05579 11.0718 9.17863 11.0974 9.30696 11.0901C9.4353 11.0828 9.55446 11.0406 9.66446 10.9636C9.77446 10.8866 9.8533 10.7876 9.90096 10.6666C9.94863 10.5456 9.96146 10.4191 9.93946 10.2871L9.40046 7.16309L11.6445 4.94109C11.7398 4.85309 11.8021 4.74492 11.8315 4.61659C11.8608 4.48825 11.8535 4.36175 11.8095 4.23709C11.7655 4.11242 11.6958 4.00792 11.6005 3.92359C11.5051 3.83925 11.3915 3.78975 11.2595 3.77509L8.17946 3.32409L6.79346 0.475087Z" fill="#D1D5DB"/>
</svg>
