<?xml version="1.0" encoding="iso-8859-1"?>
<!-- Uploaded to: SVG Repo, www.svgrepo.com, Generator: SVG Repo Mixer Tools -->
<!DOCTYPE svg PUBLIC "-//W3C//DTD SVG 1.1//EN" "http://www.w3.org/Graphics/SVG/1.1/DTD/svg11.dtd">
<svg fill="#000000" version="1.1" id="Capa_1" xmlns="http://www.w3.org/2000/svg" xmlns:xlink="http://www.w3.org/1999/xlink" 
	 width="800px" height="800px" viewBox="0 0 61.482 61.482"
	 xml:space="preserve">
<g>
	<path d="M30.741,0C13.79,0,0,13.791,0,30.742c0,16.952,13.79,30.741,30.741,30.741s30.741-13.789,30.741-30.741
		C61.483,13.791,47.693,0,30.741,0z M21.249,36.973c0.501-1.545-0.045-3.226-1.359-4.182L8.088,24.215h14.587
		c1.626,0,3.055-1.039,3.558-2.584l4.509-13.876l4.507,13.877c0.505,1.544,1.933,2.583,3.558,2.583h14.588L41.594,32.79
		c-1.313,0.956-1.86,2.636-1.359,4.181l4.509,13.877l-11.802-8.576c-0.643-0.467-1.404-0.713-2.199-0.713s-1.556,0.246-2.199,0.713
		L16.74,50.848L21.249,36.973z"/>
</g>
</svg>