<svg width="13" height="7" viewBox="0 0 13 7" fill="none" xmlns="http://www.w3.org/2000/svg">
<path d="M12.8565 3.12789C12.8565 3.09989 12.8448 3.07423 12.8215 3.05089C12.7982 3.02756 12.7725 3.01589 12.7445 3.01589L10.4065 0.677893C10.3132 0.593894 10.2058 0.551893 10.0845 0.551893C9.96317 0.551893 9.85583 0.593894 9.7625 0.677893C9.66917 0.761893 9.62483 0.869227 9.6295 0.999893C9.63417 1.13056 9.6785 1.23789 9.7625 1.32189L11.3445 2.90389H0.7745C0.653167 2.90389 0.545833 2.94589 0.4525 3.02989C0.359167 3.11389 0.3125 3.22823 0.3125 3.37289C0.3125 3.51756 0.3545 3.62956 0.4385 3.70889C0.5225 3.78823 0.6345 3.82789 0.7745 3.82789H11.4005L9.8185 5.40989C9.7345 5.49389 9.6925 5.59889 9.6925 5.72489C9.6925 5.85089 9.7345 5.96056 9.8185 6.05389C9.8465 6.08189 9.8885 6.10756 9.9445 6.13089C10.0005 6.15423 10.0565 6.16589 10.1125 6.16589C10.1685 6.16589 10.2245 6.15423 10.2805 6.13089C10.3365 6.10756 10.3785 6.08189 10.4065 6.05389L12.7445 3.71589C12.7632 3.69723 12.7818 3.67389 12.8005 3.64589C12.8192 3.61789 12.8378 3.60389 12.8565 3.60389C12.8845 3.48256 12.8985 3.38923 12.8985 3.32389C12.8985 3.25856 12.8845 3.19323 12.8565 3.12789Z" fill="#212529"/>
</svg>
