<svg width="19" height="21" viewBox="0 0 19 21" fill="none" xmlns="http://www.w3.org/2000/svg">
<path d="M14.2863 5.12002C13.0463 4.92002 11.8263 5.18002 10.7863 5.86002C11.0863 5.18002 11.5863 4.56002 12.2463 4.02002C13.0263 3.36002 13.7663 3.06002 13.7663 3.06002C14.0663 2.94002 14.2263 2.60002 14.1063 2.30002C13.9863 1.98002 13.6463 1.84002 13.3463 1.96002C13.2463 2.00002 11.7663 2.58002 10.6063 3.94002C10.5663 3.74002 10.4863 3.52002 10.4063 3.30002C9.72631 1.50002 7.80631 0.600022 7.72631 0.560022C7.58631 0.480022 7.42631 0.480022 7.26631 0.540022C7.10631 0.600022 6.98631 0.720022 6.92631 0.860022C6.90631 0.940022 6.08631 2.88002 6.76631 4.70002C6.84631 4.86002 6.90631 5.02002 6.98631 5.16002C6.38631 5.04002 5.76631 5.02002 5.12631 5.12002C2.36631 5.56002 0.486307 8.22002 0.906307 11.04C1.22631 13.06 1.66631 14.8 2.24631 16.18C2.90631 17.78 3.72631 18.94 4.70631 19.66C5.48631 20.22 6.34631 20.5 7.28631 20.5C7.54631 20.5 7.80631 20.48 8.08631 20.44C8.70631 20.34 9.24631 20.1 9.70631 19.76C10.1663 20.1 10.7063 20.34 11.3463 20.44C12.5863 20.64 13.7263 20.38 14.7063 19.66C15.6863 18.94 16.5063 17.78 17.1663 16.18C17.7463 14.8 18.2063 13.06 18.5063 11.04C18.9463 8.22002 17.0463 5.56002 14.2863 5.12002ZM7.82631 2.00002C8.32631 2.34002 8.98631 2.92002 9.30631 3.72002C9.60631 4.54002 9.50631 5.42002 9.36631 6.00002C8.86631 5.66002 8.20631 5.08002 7.88631 4.26002C7.58631 3.46002 7.68631 2.58002 7.82631 2.00002ZM17.3263 10.86C16.7263 14.84 15.5663 17.54 14.0063 18.68C13.2663 19.22 12.4663 19.4 11.5263 19.26C10.9463 19.16 10.5063 18.94 10.1463 18.54C10.0263 18.42 9.86631 18.36 9.70631 18.36C9.54631 18.36 9.38631 18.42 9.26631 18.54C8.90631 18.94 8.46631 19.16 7.88631 19.26C6.94631 19.4 6.14631 19.22 5.40631 18.68C3.84631 17.54 2.68631 14.84 2.08631 10.86C1.74631 8.68002 3.20631 6.64002 5.32631 6.28002C5.52631 6.26002 5.72631 6.24002 5.92631 6.24002C6.74631 6.24002 7.54631 6.52002 8.22631 7.02002C9.10631 7.70002 10.3263 7.70002 11.1863 7.02002C12.0263 6.38002 13.0663 6.12002 14.0863 6.28002C16.2063 6.64002 17.6663 8.68002 17.3263 10.86Z" fill="black"/>
</svg>
