<svg width="19" height="21" viewBox="0 0 19 21" fill="none" xmlns="http://www.w3.org/2000/svg">
<path d="M18.6661 3.76C18.6661 3.04 18.1661 2.04 15.8061 1.3C14.1661 0.78 12.0061 0.5 9.70609 0.5C7.40609 0.5 5.24609 0.78 3.60609 1.3C1.24609 2.04 0.746094 3.04 0.746094 3.76V17.2C0.746094 19.36 5.24609 20.5 9.70609 20.5C14.1661 20.5 18.6661 19.36 18.6661 17.2V3.76ZM17.4861 17.2C17.4861 17.56 16.8661 18.1 15.4461 18.56C15.1861 18.64 14.9061 18.72 14.6061 18.8V17.96C14.6061 17.62 14.3461 17.36 14.0061 17.36C13.6661 17.36 13.4261 17.62 13.4261 17.96V19.04C12.2861 19.22 11.0261 19.32 9.70609 19.32C7.52609 19.32 5.48609 19.06 3.96609 18.56C2.56609 18.1 1.92609 17.56 1.92609 17.2V5.48C3.54609 6.5 6.64609 7.04 9.70609 7.04C10.9861 7.04 12.2461 6.96 13.4261 6.78V7.64C13.4261 7.98 13.6861 8.24 14.0061 8.24C14.3261 8.24 14.6061 7.98 14.6061 7.64V6.56C15.7661 6.3 16.7661 5.94 17.4861 5.48V17.2ZM15.4461 5.1C13.9261 5.6 11.8861 5.86 9.70609 5.86C7.52609 5.86 5.48609 5.6 3.96609 5.1C2.56609 4.64 1.92609 4.1 1.92609 3.76C1.92609 3.42 2.54609 2.86 3.96609 2.42C5.48609 1.94 7.52609 1.68 9.70609 1.68C11.8861 1.68 13.9261 1.94 15.4461 2.42C16.8661 2.86 17.4861 3.42 17.4861 3.76C17.4861 4.1 16.8661 4.64 15.4461 5.1ZM12.1661 2.58C11.5061 2.42 10.6261 2.32 9.70609 2.32C8.78609 2.32 7.90609 2.42 7.24609 2.58C6.32609 2.82 5.86609 3.22 5.86609 3.76C5.86609 4.3 6.32609 4.7 7.24609 4.96C7.90609 5.12 8.78609 5.22 9.70609 5.22C10.6261 5.22 11.5061 5.12 12.1661 4.96C13.0861 4.7 13.5461 4.3 13.5461 3.76C13.5461 3.22 13.0861 2.82 12.1661 2.58ZM9.70609 4.04C8.64609 4.04 7.84609 3.9 7.38609 3.76C7.84609 3.64 8.64609 3.5 9.70609 3.5C10.7861 3.5 11.5661 3.64 12.0261 3.76C11.5661 3.9 10.7861 4.04 9.70609 4.04ZM14.0061 9.44C13.6861 9.44 13.4261 9.7 13.4261 10.04V11.6C13.4261 11.94 13.6861 12.2 14.0061 12.2C14.3261 12.2 14.6061 11.94 14.6061 11.6V10.04C14.6061 9.7 14.3461 9.44 14.0061 9.44ZM14.0061 13.4C13.6861 13.4 13.4261 13.66 13.4261 14V15.56C13.4261 15.9 13.6861 16.16 14.0061 16.16C14.3261 16.16 14.6061 15.9 14.6061 15.56V14C14.6061 13.66 14.3461 13.4 14.0061 13.4Z" fill="black"/>
</svg>
