<svg width="14" height="20" viewBox="0 0 14 20" fill="none" xmlns="http://www.w3.org/2000/svg">
<path d="M13.0464 12.76H10.4064C9.34641 12.76 8.38641 13.2 7.68641 13.88V11.64H9.38641C11.3064 11.64 12.8664 10.08 12.8664 8.16C12.8664 7.84 12.6064 7.58 12.2664 7.58H9.98641C9.08641 7.58 8.28641 7.92 7.68641 8.46V7.04L8.26641 6.46C8.92641 5.78 9.30641 4.88 9.30641 3.94C9.30641 2.98 8.92641 2.1 8.26641 1.42L7.50641 0.68C7.28641 0.44 6.90641 0.44 6.68641 0.68L5.92641 1.42C5.24641 2.1 4.88641 2.98 4.88641 3.94C4.88641 4.88 5.24641 5.78 5.92641 6.46L6.50641 7.04V8.46C5.88641 7.92 5.08641 7.58 4.20641 7.58H1.90641C1.58641 7.58 1.32641 7.84 1.32641 8.16C1.32641 10.08 2.88641 11.64 4.78641 11.64H6.50641V13.88C5.80641 13.2 4.84641 12.76 3.78641 12.76H1.14641C0.826406 12.76 0.566406 13.02 0.566406 13.36C0.566406 15.5 2.30641 17.24 4.44641 17.24H6.50641V18.68C6.50641 19 6.76641 19.26 7.08641 19.26C7.40641 19.26 7.68641 19 7.68641 18.68V17.24H9.72641C11.8864 17.24 13.6264 15.5 13.6264 13.36C13.6264 13.02 13.3664 12.76 13.0464 12.76ZM9.98641 8.76H11.6064C11.3464 9.74 10.4464 10.46 9.38641 10.46H7.74641C8.00641 9.48 8.90641 8.76 9.98641 8.76ZM4.78641 10.46C3.72641 10.46 2.82641 9.74 2.56641 8.76H4.20641C5.26641 8.76 6.16641 9.48 6.42641 10.46H4.78641ZM4.44641 16.08C3.14641 16.08 2.06641 15.16 1.78641 13.94H3.78641C5.08641 13.94 6.16641 14.86 6.44641 16.08H4.44641ZM7.08641 5.88C6.90641 5.88 6.04641 5.08 6.04641 3.94C6.04641 2.84 6.70641 2.3 7.08641 1.92C7.46641 2.28 8.12641 2.84 8.12641 3.94C8.12641 5.06 7.28641 5.88 7.08641 5.88ZM9.72641 16.08H7.74641C8.00641 14.86 9.10641 13.94 10.4064 13.94H12.3864C12.1264 15.16 11.0264 16.08 9.72641 16.08Z" fill="black"/>
</svg>
