<svg width="18" height="21" viewBox="0 0 18 21" fill="none" xmlns="http://www.w3.org/2000/svg">
<path d="M7.70645 20.46C5.76645 20.46 3.94645 19.7 2.56645 18.32C1.84645 17.6 1.22645 16.74 0.826453 15.8C0.366453 14.78 0.106453 13.7 0.106453 12.58C0.0664529 10.04 1.24645 7.48 3.52645 5.22C4.42645 4.3 6.62645 2.48 9.10645 1.38C12.1865 0.0400001 14.7065 0.24 16.4265 1.94C16.8465 2.36 17.1465 3.04 17.2465 3.76C17.3265 4.38 17.3065 5.32 16.6865 6.3C15.2465 8.62 14.7065 10.48 14.9265 12.3C15.2065 14.54 14.4465 16.74 12.8465 18.34C11.4665 19.7 9.64645 20.46 7.70645 20.46ZM12.8065 1.66C11.8665 1.66 10.7865 1.92 9.58645 2.46C7.26645 3.48 5.20645 5.2 4.34645 6.04C0.066453 10.34 0.786453 14.88 3.38645 17.5C5.76645 19.88 9.62645 19.88 12.0265 17.5C13.3465 16.18 13.9865 14.32 13.7665 12.44C13.5065 10.34 14.1065 8.26 15.6865 5.7C16.4865 4.38 15.9665 3.14 15.5865 2.78C14.8465 2.04 13.9265 1.66 12.8065 1.66ZM7.70645 18.12C6.38645 18.12 5.14645 17.6 4.22645 16.66C3.10645 15.56 2.46645 14.06 2.44645 12.56C2.42645 11.68 2.62645 10.78 3.00645 9.9C3.46645 8.88 4.18645 7.86 5.16645 6.88C6.84645 5.2 10.3265 2.84 12.8065 2.84C13.3465 2.84 13.7865 2.94 14.1865 3.16C14.5065 3.34 14.7465 3.64 14.8465 4C14.9465 4.36 14.8865 4.74 14.7065 5.06L14.6865 5.08C12.9865 7.84 12.3265 10.22 12.6065 12.58C12.7865 14.1 12.2665 15.6 11.1865 16.68C10.2465 17.6 9.02645 18.12 7.70645 18.12ZM12.8065 4.02C10.7865 4.02 7.54645 6.16 6.00645 7.7C5.12645 8.58 4.48645 9.48 4.08645 10.38C3.76645 11.1 3.60645 11.84 3.60645 12.54C3.62645 13.74 4.14645 14.94 5.04645 15.84C5.76645 16.56 6.70645 16.94 7.70645 16.94C8.70645 16.94 9.64645 16.56 10.3665 15.84C11.1865 15.02 11.5865 13.88 11.4465 12.72C11.1265 10.1 11.8465 7.46 13.6865 4.46C13.7265 4.4 13.7265 4.34 13.7065 4.3C13.7065 4.28 13.6865 4.22 13.6265 4.18C13.4065 4.06 13.1465 4.02 12.8065 4.02ZM7.74645 15.16C6.70645 15.16 5.86645 14.32 5.86645 13.28C5.86645 12.24 6.70645 11.4 7.74645 11.4C8.78645 11.4 9.62645 12.24 9.62645 13.28C9.62645 14.32 8.78645 15.16 7.74645 15.16ZM7.74645 12.58C7.36645 12.58 7.04645 12.88 7.04645 13.28C7.04645 13.68 7.36645 13.98 7.74645 13.98C8.12645 13.98 8.46645 13.66 8.46645 13.28C8.46645 12.9 8.14645 12.58 7.74645 12.58Z" fill="black"/>
</svg>
