<svg width="21" height="21" viewBox="0 0 21 21" fill="none" xmlns="http://www.w3.org/2000/svg">
<path d="M20.167 5.36L15.847 1.04C15.507 0.7 15.047 0.5 14.547 0.5C14.067 0.5 13.587 0.7 13.247 1.04L10.127 4.16L7.08703 5.16C6.62703 5.3 6.30703 5.68 6.24703 6.16C6.18703 6.64 6.38703 7.1 6.78703 7.36C6.80703 7.38 6.84703 7.4 6.86703 7.42L1.24703 13.04C0.527031 13.76 0.527031 14.92 1.24703 15.64L5.56703 19.96C5.90703 20.3 6.36703 20.5 6.86703 20.5C7.36703 20.5 7.82703 20.3 8.16703 19.96L13.307 14.82C13.767 15.08 14.187 15.32 14.547 15.48C14.727 15.56 14.907 15.62 15.087 15.62C15.267 15.62 15.467 15.56 15.627 15.48C15.987 15.32 16.227 15 16.307 14.62L17.067 11.06L20.167 7.96C20.887 7.24 20.887 6.08 20.167 5.36ZM7.30703 19.1C7.18703 19.22 7.02703 19.3 6.86703 19.3C6.68703 19.3 6.52703 19.22 6.42703 19.1L2.10703 14.78C1.84703 14.54 1.84703 14.14 2.10703 13.9L7.84703 8.16C8.70703 8.86 9.62703 9.82 9.92703 10.88C10.307 12.24 11.287 13.3 12.307 14.12L7.30703 19.1ZM15.127 14.38C15.127 14.38 15.127 14.4 15.107 14.4C15.087 14.4 15.087 14.4 15.067 14.4C14.067 13.92 11.667 12.56 11.087 10.54C10.567 8.74 8.82703 7.28 7.44703 6.36C7.44703 6.36 7.42703 6.34 7.44703 6.32C7.44703 6.3 7.44703 6.3 7.46703 6.3L10.287 5.38L15.867 10.94L15.127 14.38ZM12.847 6.22L14.547 4.52L16.687 6.66L14.987 8.36L12.847 6.22ZM19.307 7.1L16.527 9.9L15.847 9.22L17.967 7.08C18.087 6.98 18.147 6.82 18.147 6.66C18.147 6.5 18.087 6.34 17.967 6.22L14.987 3.24C14.867 3.12 14.707 3.06 14.547 3.06C14.387 3.06 14.227 3.12 14.127 3.24L11.987 5.36L11.307 4.68L14.107 1.9C14.227 1.78 14.387 1.7 14.547 1.7C14.727 1.7 14.887 1.78 15.007 1.9L19.307 6.2C19.567 6.46 19.567 6.86 19.307 7.1Z" fill="black"/>
</svg>
