<svg width="21" height="19" viewBox="0 0 21 19" fill="none" xmlns="http://www.w3.org/2000/svg">
<path d="M19.9446 8.51438C19.5714 8.14161 19.1027 7.89512 18.594 7.7986C17.4954 4.40378 14.3086 2.0664 10.707 2.0664H10.3142C9.37077 2.0664 8.60325 1.29884 8.60325 0.355469H7.43138C7.43138 0.995634 7.64138 1.5875 7.99573 2.0664H7.62446C6.68105 2.0664 5.91354 1.29884 5.91354 0.355469H4.74166C4.74166 1.62872 5.57167 2.71107 6.71876 3.09171C4.90455 4.08911 3.48256 5.75142 2.8201 7.7986C2.3114 7.89512 1.84262 8.14169 1.4691 8.51481C0.977667 9.00676 0.707031 9.66044 0.707031 10.3555C0.707031 11.042 0.971857 11.6896 1.45277 12.1792C1.82863 12.5619 2.3033 12.8144 2.8201 12.9124C3.91861 16.3072 7.10545 18.6445 10.707 18.6445C14.3086 18.6445 17.4954 16.3072 18.594 12.9124C19.1108 12.8144 19.5854 12.5619 19.9613 12.1792C20.4422 11.6896 20.707 11.042 20.707 10.3555C20.707 9.66044 20.4364 9.00676 19.9446 8.51438ZM18.1323 11.786L17.6926 11.7943L17.5777 12.2189C16.7412 15.3122 13.9159 17.4726 10.707 17.4726C7.4981 17.4726 4.67281 15.3122 3.83632 12.2189L3.72149 11.7943L3.28176 11.786C2.5082 11.7714 1.87886 11.1297 1.87886 10.3555C1.87886 9.97321 2.02776 9.61364 2.29764 9.34344C2.56085 9.08051 2.91034 8.93185 3.28165 8.9249L3.72145 8.91664L3.83628 8.49201C4.67281 5.39873 7.49814 3.23831 10.707 3.23831C11.7661 3.23831 12.6278 4.09994 12.6278 5.15904C12.6278 6.21815 11.7661 7.07982 10.707 7.07982C9.64793 7.07982 8.7863 6.21819 8.7863 5.15908H7.61443C7.61443 6.86436 9.00175 8.25169 10.707 8.25169C12.4123 8.25169 13.7996 6.86436 13.7996 5.15908C13.7996 4.67378 13.687 4.21445 13.4869 3.80527C15.4523 4.64129 16.996 6.34095 17.5777 8.49205L17.6926 8.91668L18.1324 8.92494C18.5037 8.93189 18.8532 9.08055 19.1159 9.34301C19.3863 9.61368 19.5352 9.97325 19.5352 10.3555C19.5352 11.1297 18.9058 11.7714 18.1323 11.786Z" fill="black"/>
</svg>
