<svg width="19" height="21" viewBox="0 0 19 21" fill="none" xmlns="http://www.w3.org/2000/svg">
<path d="M16.1878 2.8C14.4478 1.32 12.1478 0.5 9.70781 0.5C7.26781 0.5 4.96781 1.32 3.22781 2.8C1.46781 4.32 0.507812 6.34 0.507812 8.48C0.507812 10.26 1.16781 11.42 2.26781 12.72C2.98781 13.58 3.34781 14.2 3.34781 15.3V18.42C3.34781 19.56 4.28781 20.5 5.42781 20.5H13.9878C15.1278 20.5 16.0678 19.56 16.0678 18.42V15.3C16.0678 14.2 16.4278 13.58 17.1478 12.72C18.2478 11.42 18.9078 10.26 18.9078 8.48C18.9078 6.34 17.9478 4.32 16.1878 2.8ZM16.2478 11.94C15.3678 12.98 14.8678 13.86 14.8678 15.3V18.42C14.8678 18.92 14.4678 19.32 13.9878 19.32H5.42781C4.94781 19.32 4.54781 18.92 4.54781 18.42V15.3C4.54781 13.86 4.04781 12.98 3.16781 11.94C2.20781 10.8 1.68781 9.92 1.68781 8.48C1.68781 4.74 5.28781 1.68 9.70781 1.68C14.1278 1.68 17.7278 4.74 17.7278 8.48C17.7278 9.92 17.2078 10.8 16.2478 11.94ZM6.64781 4.84C5.42781 4.84 4.42781 5.82 4.42781 7.04C4.42781 8.28 5.42781 9.26 6.64781 9.26C7.86781 9.26 8.86781 8.28 8.86781 7.04C8.86781 5.8 7.86781 4.84 6.64781 4.84ZM6.64781 8.08C6.08781 8.08 5.62781 7.62 5.62781 7.04C5.62781 6.48 6.08781 6.02 6.64781 6.02C7.20781 6.02 7.66781 6.48 7.66781 7.04C7.66781 7.62 7.20781 8.08 6.64781 8.08ZM13.1278 4.74C12.8078 4.74 12.5078 5 12.5278 5.34C12.5478 5.66 12.7878 5.92 13.1278 5.92C13.4278 5.92 13.7278 5.66 13.7078 5.34C13.7078 5 13.4478 4.74 13.1278 4.74ZM7.74781 10.96C7.42781 10.96 7.12781 11.24 7.14781 11.56C7.16781 11.88 7.40781 12.16 7.74781 12.16C8.06781 12.16 8.34781 11.88 8.34781 11.56C8.32781 11.24 8.08781 10.96 7.74781 10.96ZM9.70781 14.04C8.58781 14.04 7.66781 14.96 7.66781 16.08C7.66781 17.2 8.58781 18.12 9.70781 18.12C10.8278 18.12 11.7478 17.2 11.7478 16.08C11.7478 14.96 10.8278 14.04 9.70781 14.04ZM9.70781 16.94C9.22781 16.94 8.84781 16.56 8.84781 16.08C8.84781 15.6 9.22781 15.22 9.70781 15.22C10.1878 15.22 10.5678 15.6 10.5678 16.08C10.5678 16.56 10.1878 16.94 9.70781 16.94ZM12.8678 7.8C11.7678 7.8 10.8678 8.7 10.8678 9.8C10.8678 10.9 11.7678 11.8 12.8678 11.8C13.9678 11.8 14.8678 10.92 14.8678 9.8C14.8678 8.68 13.9678 7.8 12.8678 7.8ZM12.8678 10.62C12.4278 10.62 12.0478 10.26 12.0478 9.8C12.0478 9.36 12.4278 9 12.8678 9C13.3078 9 13.6678 9.36 13.6678 9.8C13.6678 10.26 13.3078 10.62 12.8678 10.62Z" fill="black"/>
</svg>
