<svg width="21" height="21" viewBox="0 0 21 21" fill="none" xmlns="http://www.w3.org/2000/svg">
<g clip-path="url(#clip0_6314_4170)">
<g clip-path="url(#clip1_6314_4170)">
<g clip-path="url(#clip2_6314_4170)">
<path d="M15.8143 7.59833H2.1452C1.74785 7.59833 1.42578 7.9204 1.42578 8.31774V12.946C1.42578 17.1115 4.81453 20.5 8.97977 20.5C13.145 20.5 16.5337 17.1115 16.5337 12.9461V8.31774C16.5337 7.9204 16.2116 7.59833 15.8143 7.59833ZM15.0948 12.9461C15.0948 16.318 12.3517 19.0612 8.97973 19.0612C5.60777 19.0612 2.86465 16.318 2.86465 12.9461V9.0372H15.0949L15.0948 12.9461Z" fill="black"/>
<path d="M17.7582 10.548H15.8155V11.9868H17.7582C18.4863 11.9868 19.1012 12.6017 19.1012 13.3298C19.1012 14.0578 18.4861 14.6727 17.7582 14.6727H15.3359V16.1116H17.7582C19.2921 16.1116 20.54 14.8638 20.54 13.3298C20.54 11.7957 19.292 10.548 17.7582 10.548Z" fill="black"/>
<path d="M8.98113 0.5C8.58379 0.5 8.26172 0.82207 8.26172 1.21941V4.64867C8.26172 5.04602 8.58379 5.36809 8.98113 5.36809C9.37848 5.36809 9.70055 5.04602 9.70055 4.64867V1.21941C9.70055 0.82207 9.37848 0.5 8.98113 0.5Z" fill="black"/>
<path d="M12.4108 1.65112C12.0135 1.65112 11.6914 1.97319 11.6914 2.37054V5.79979C11.6914 6.19714 12.0135 6.51921 12.4108 6.51921C12.8082 6.51921 13.1302 6.19714 13.1302 5.79979V2.37054C13.1303 1.97315 12.8082 1.65112 12.4108 1.65112Z" fill="black"/>
<path d="M5.55145 1.65112C5.1541 1.65112 4.83203 1.97319 4.83203 2.37054V5.79979C4.83203 6.19714 5.1541 6.51921 5.55145 6.51921C5.94879 6.51921 6.27086 6.19714 6.27086 5.79979V2.37054C6.27086 1.97315 5.94879 1.65112 5.55145 1.65112Z" fill="black"/>
<path d="M16.1747 19.0612H1.59441C1.19707 19.0612 0.875 19.3832 0.875 19.7806C0.875 20.1779 1.19707 20.5 1.59441 20.5H16.1748C16.5721 20.5 16.8942 20.1779 16.8942 19.7806C16.8941 19.3832 16.5721 19.0612 16.1747 19.0612Z" fill="black"/>
</g>
</g>
</g>
<defs>
<clipPath id="clip0_6314_4170">
<rect width="20" height="20" fill="white" transform="translate(0.707031 0.5)"/>
</clipPath>
<clipPath id="clip1_6314_4170">
<rect width="20" height="20" fill="white" transform="translate(0.707031 0.5)"/>
</clipPath>
<clipPath id="clip2_6314_4170">
<rect width="20" height="20" fill="white" transform="translate(0.707031 0.5)"/>
</clipPath>
</defs>
</svg>
