<svg width="18" height="21" viewBox="0 0 18 21" fill="none" xmlns="http://www.w3.org/2000/svg">
<path d="M17.1373 9.21758C17.0911 8.91707 16.8211 8.70318 16.5182 8.72621C16.3853 8.73636 16.2656 8.7907 16.1731 8.87412L16.0026 9.02147C15.6609 7.05981 14.8793 5.13402 13.79 3.60897C12.3582 1.60413 10.5523 0.5 8.70502 0.5C6.85795 0.5 5.05215 1.60413 3.6202 3.60906C2.53091 5.13421 1.74945 7.05995 1.40789 9.02152L1.24417 8.87998C1.15083 8.79312 1.02856 8.7364 0.892378 8.72598C0.589303 8.70318 0.319447 8.91707 0.273246 9.21758C0.159302 9.95922 0.101562 10.6966 0.101562 11.4092C0.101562 14.1866 0.973753 16.5175 2.62383 18.1501C4.15544 19.6655 6.31531 20.5 8.70548 20.5C11.0955 20.5 13.2552 19.6655 14.7868 18.1501C16.4368 16.5175 17.309 14.1866 17.309 11.4092C17.309 10.6966 17.2512 9.95922 17.1373 9.21758ZM4.56678 4.28509C5.77434 2.59431 7.24403 1.66317 8.70502 1.66317C10.1662 1.66317 11.636 2.59431 12.8436 4.28505C13.964 5.85379 14.7265 7.89408 14.9579 9.92451L14.0253 10.7305L11.745 8.7599C11.5266 8.57119 11.2028 8.57119 10.9844 8.75999L8.70502 10.7304L6.42525 8.75995C6.2069 8.57114 5.88303 8.57114 5.66463 8.75995L3.38482 10.7304L2.4527 9.9247C2.68385 7.89431 3.44628 5.85393 4.56678 4.28509ZM13.9687 17.3232C12.6563 18.6217 10.7872 19.3368 8.70553 19.3368C6.62364 19.3368 4.75438 18.6217 3.44195 17.3232C2.01763 15.9141 1.26473 13.8691 1.26473 11.4092C1.26473 11.0996 1.27664 10.7846 1.30042 10.4661L3.00446 11.9391C3.22281 12.1279 3.54664 12.1279 3.76508 11.9391L6.04489 9.96857L8.32471 11.9391C8.5431 12.1279 8.86693 12.1279 9.08537 11.9391L11.3647 9.96857L13.645 11.9392C13.8634 12.1279 14.1872 12.1279 14.4056 11.9392L16.1101 10.4659C16.1339 10.7845 16.1458 11.0995 16.1458 11.4091C16.1459 13.869 15.393 15.914 13.9687 17.3232Z" fill="black"/>
</svg>
