<svg width="19" height="21" viewBox="0 0 19 21" fill="none" xmlns="http://www.w3.org/2000/svg">
<path d="M18.4425 19.818L16.8704 10.3778C16.6434 9.01812 15.4779 8.03125 14.099 8.03125C13.0378 8.03125 12.1745 7.16793 12.1745 6.10676V2.96875C12.1745 1.6075 11.067 0.5 9.70571 0.5C8.34442 0.5 7.23696 1.6075 7.23696 2.96875V6.10676C7.23696 7.16793 6.37364 8.03125 5.31247 8.03125C3.93352 8.03125 2.76798 9.01813 2.54094 10.3786L0.968874 19.818C0.940632 19.9879 0.988562 20.1615 1.09989 20.2929C1.21126 20.4243 1.37469 20.5 1.54688 20.5H17.8645C18.0367 20.5 18.2002 20.4243 18.3115 20.2929C18.4229 20.1615 18.4708 19.9879 18.4425 19.818ZM3.69696 10.5707C3.82923 9.77828 4.50864 9.20312 5.31247 9.20312C7.01981 9.20312 8.40884 7.8141 8.40884 6.10676V2.96875C8.40884 2.25363 8.99063 1.67188 9.70571 1.67188C10.4208 1.67188 11.0026 2.25367 11.0026 2.96875V6.10676C11.0026 7.8141 12.3916 9.20312 14.099 9.20312C14.9028 9.20312 15.5822 9.77828 15.7143 10.57C15.7607 10.8503 15.8096 11.1451 15.8588 11.4414C15.1011 10.86 14.169 10.5417 13.2109 10.5417H6.20055C5.24251 10.5417 4.3104 10.86 3.5527 11.4414C3.60176 11.1454 3.65059 10.8508 3.69696 10.5707ZM3.0663 14.37C3.32169 12.8307 4.63981 11.7136 6.20051 11.7136H13.2109C14.7716 11.7136 16.0897 12.8307 16.3453 14.3714C16.4999 15.2898 16.6546 16.2145 16.7554 16.8177H2.65602C2.7568 16.2143 2.91157 15.2893 3.0663 14.37ZM2.23825 19.3281L2.46075 17.9896H16.9506L17.1732 19.3281H2.23825Z" fill="black"/>
</svg>
