<svg width="19" height="21" viewBox="0 0 19 21" fill="none" xmlns="http://www.w3.org/2000/svg">
<path d="M18.1195 14.5677L16.0881 13.3949L17.8485 12.3569C18.1732 12.1654 18.2812 11.747 18.0897 11.4223C17.8983 11.0977 17.4799 10.9897 17.1552 11.1811L14.7302 12.611L11.0739 10.5L14.7296 8.38931L17.1552 9.819C17.264 9.88316 17.3834 9.91355 17.5011 9.91355C17.7348 9.91355 17.9624 9.79343 18.0897 9.57749C18.2811 9.2528 18.173 8.83439 17.8483 8.64292L16.0876 7.60526L18.1195 6.43218C18.4459 6.24372 18.5577 5.8263 18.3693 5.49989C18.1808 5.17338 17.7634 5.06154 17.437 5.25009L15.4056 6.42299L15.3871 4.37904C15.3838 4.00212 15.0745 3.69755 14.6985 3.70273C14.3216 3.7061 14.0188 4.01441 14.0222 4.39133L14.0476 7.20695L10.3915 9.31787V5.09639L12.8428 3.71101C13.1709 3.52556 13.2866 3.10923 13.1011 2.781C12.9157 2.45285 12.4993 2.3371 12.1711 2.52265L10.3915 3.52847V1.1825C10.3915 0.805577 10.0859 0.5 9.70902 0.5C9.3321 0.5 9.02652 0.805577 9.02652 1.1825V3.52847L7.24693 2.52274C6.9186 2.33719 6.50246 2.45285 6.31692 2.78109C6.13146 3.10923 6.24712 3.52565 6.57526 3.71111L9.02643 5.09648V9.31787L5.37034 7.20695L5.39573 4.39133C5.39918 4.01441 5.09634 3.7061 4.71942 3.70273C4.71732 3.70273 4.71532 3.70273 4.71314 3.70273C4.33913 3.70273 4.03419 4.00422 4.03082 4.37913L4.01235 6.42299L1.98096 5.25009C1.65455 5.06154 1.23713 5.17347 1.04867 5.49989C0.860211 5.8263 0.97205 6.24372 1.29847 6.43218L3.33021 7.60526L1.56928 8.64311C1.24459 8.83448 1.13649 9.25289 1.32786 9.57767C1.45517 9.79361 1.68276 9.91373 1.91654 9.91373C2.03429 9.91373 2.15359 9.88325 2.26242 9.81919L4.68839 8.38949L8.34411 10.5001L4.68775 12.6111L2.26242 11.181C1.93792 10.9896 1.51932 11.0975 1.32786 11.4222C1.1364 11.7469 1.24441 12.1653 1.5691 12.3567L3.32976 13.3948L1.29837 14.5676C0.971959 14.7561 0.86012 15.1735 1.04858 15.4999C1.17498 15.7189 1.40439 15.8413 1.64026 15.8413C1.75601 15.8413 1.8734 15.8118 1.98087 15.7497L4.01226 14.5768L4.03073 16.6209C4.0341 16.9957 4.33904 17.2973 4.71305 17.2973C4.71514 17.2973 4.71723 17.2973 4.71932 17.2972C5.09625 17.2938 5.39909 16.9855 5.39563 16.6086L5.37025 13.7929L9.02643 11.6819V15.9035L6.57526 17.2889C6.24712 17.4744 6.13146 17.8907 6.31692 18.2189C6.4424 18.441 6.67363 18.5657 6.91169 18.5657C7.02544 18.5657 7.14083 18.5372 7.24693 18.4773L9.02652 17.4715V19.8175C9.02652 20.1944 9.3321 20.5 9.70902 20.5C10.0859 20.5 10.3915 20.1944 10.3915 19.8175V17.4715L12.1711 18.4773C12.2772 18.5372 12.3925 18.5657 12.5063 18.5657C12.7444 18.5657 12.9756 18.441 13.1011 18.2189C13.2866 17.8908 13.1709 17.4744 12.8428 17.2889L10.3915 15.9035V11.682L14.0476 13.7929L14.0216 16.6085C14.018 16.9854 14.3208 17.2938 14.6977 17.2973C14.6999 17.2974 14.702 17.2974 14.7042 17.2974C15.0781 17.2974 15.383 16.9959 15.3865 16.6211L15.4054 14.5768L17.4371 15.7498C17.5445 15.8119 17.6619 15.8414 17.7777 15.8414C18.0136 15.8414 18.243 15.7189 18.3694 15.5C18.5578 15.1736 18.446 14.7562 18.1195 14.5677Z" fill="black"/>
</svg>
