<svg width="15" height="15" viewBox="0 0 15 15" fill="none" xmlns="http://www.w3.org/2000/svg">
<path d="M3.79616 14.86H0.900156V5.51598H3.79616V14.86ZM2.34016 4.23598C2.04149 4.23598 1.76149 4.15865 1.50016 4.00398C1.23882 3.84932 1.03349 3.64398 0.884156 3.38799C0.734823 3.13198 0.660156 2.84932 0.660156 2.53998C0.660156 2.23065 0.734823 1.94798 0.884156 1.69199C1.03349 1.43598 1.23616 1.23332 1.49216 1.08398C1.74816 0.934651 2.03082 0.859984 2.34016 0.859984C2.64949 0.859984 2.93216 0.934651 3.18816 1.08398C3.44416 1.23332 3.64682 1.43598 3.79616 1.69199C3.94549 1.94798 4.02016 2.23065 4.02016 2.53998C4.02016 2.84932 3.94549 3.13198 3.79616 3.38799C3.64682 3.64398 3.44149 3.84932 3.18016 4.00398C2.91882 4.15865 2.63882 4.23598 2.34016 4.23598ZM14.6602 14.86H11.7642V10.316C11.7642 9.82532 11.7428 9.45198 11.7002 9.19599C11.6362 8.77998 11.5028 8.45999 11.3002 8.23598C11.0655 7.96932 10.7188 7.83599 10.2602 7.83599C9.56682 7.83599 9.08682 8.08132 8.82016 8.57199C8.61749 8.94532 8.51616 9.49999 8.51616 10.236V14.86H5.62016V5.51598H8.40416V6.77999H8.43616C8.64949 6.37465 8.98016 6.03332 9.42816 5.75599C9.94016 5.43598 10.5268 5.27598 11.1882 5.27598C12.1162 5.27598 12.8522 5.47332 13.3962 5.86798C13.8762 6.21999 14.2122 6.74798 14.4042 7.45198C14.5748 8.03865 14.6602 8.79599 14.6602 9.72399V14.86Z" fill="white"/>
</svg>
