<svg width="45" height="43" viewBox="0 0 45 43" fill="none" xmlns="http://www.w3.org/2000/svg">
<path d="M22.3595 42.6274C31.1723 42.6274 38.3166 35.4832 38.3166 26.6703V15.0634C38.3166 11.5519 35.4701 8.70544 31.9587 8.70544H12.7603C9.24884 8.70544 6.40234 11.5519 6.40234 15.0634V26.6703C6.40234 35.4832 13.5466 42.6274 22.3595 42.6274Z" fill="#634C9F"/>
<path d="M14.0287 19.5561C14.3612 21.0522 15.3586 23.0468 16.5222 23.3792C23.2057 25.6579 30.3059 25.5768 37.3151 25.6727V7.06336C37.3151 3.55194 34.4686 0.705442 30.9571 0.705442H11.7587C9.86221 0.705442 8.16086 1.53675 6.99609 2.85362C12.5001 6.20329 12.3089 13.6146 14.0287 19.5561Z" fill="#FACC15"/>
<path d="M36.7976 34.5977C36.6699 34.5977 36.5415 34.5926 36.4123 34.5821L20.0381 33.2455C17.5265 33.0403 15.4061 31.2659 14.7617 28.8299L11.5694 16.7637C11.0034 14.6182 10.4179 12.3999 7.9167 11.7278L0.79662 10.264C0.257208 10.1531 -0.090377 9.62587 0.0206638 9.08629C0.131538 8.54671 0.659649 8.19929 1.1984 8.31017L8.39926 9.7921C12.0463 10.7519 12.8854 13.9325 13.4982 16.2549L13.5391 16.4102L16.6901 28.3198C17.1188 29.9403 18.5294 31.1207 20.2003 31.2574L36.5747 32.594C37.8766 32.7004 39.0729 31.8636 39.4202 30.6049L42.4368 19.6702L21.5278 17.9526C21.0755 17.9159 20.6488 18.0926 20.3559 18.4385C20.063 18.7846 19.9588 19.2349 20.07 19.6744L21.0032 23.3652C21.3117 24.585 22.36 25.4892 23.612 25.6154L33.4695 26.6088C33.9729 26.6595 34.4327 26.3598 34.5906 25.8805C34.6927 25.57 34.6486 25.2351 34.4694 24.9616C34.2901 24.6882 34.0005 24.514 33.6748 24.4839L25.3966 23.7182C24.8483 23.6675 24.4448 23.1818 24.4955 22.6333C24.5462 22.0849 25.0293 21.6811 25.5805 21.732L33.8587 22.4976C34.7927 22.5841 35.6234 23.0836 36.1377 23.8682C36.6518 24.6526 36.7785 25.6137 36.4851 26.5046C36.0321 27.8798 34.7081 28.7389 33.2696 28.5934L23.412 27.6C21.328 27.3901 19.5828 25.8847 19.0693 23.8542L18.1361 20.1634C17.865 19.0918 18.1193 17.9933 18.8336 17.1497C19.5479 16.3059 20.5893 15.8746 21.6911 15.9645L45 17.8793L41.3431 31.1354C40.7758 33.1915 38.9001 34.5976 36.7976 34.5977Z" fill="#634C9F"/>
<path d="M22.3716 37.0547C22.3716 38.5543 21.156 39.7699 19.6564 39.7699C18.157 39.7699 16.9414 38.5543 16.9414 37.0547C16.9414 35.5552 18.157 34.3397 19.6564 34.3397C21.156 34.3397 22.3716 35.5552 22.3716 37.0547Z" fill="#DC2626"/>
<path d="M35.8666 37.8801C35.8666 38.7862 35.1322 39.5206 34.2263 39.5206C33.3203 39.5206 32.5859 38.7862 32.5859 37.8801C32.5859 36.9741 33.3203 36.2397 34.2263 36.2397C35.1322 36.2397 35.8666 36.9741 35.8666 37.8801Z" fill="#DC2626"/>
<path d="M19.5192 12.928C19.5192 14.2439 18.4525 15.3105 17.1366 15.3105C15.8208 15.3105 14.7539 14.2439 14.7539 12.928C14.7539 11.6121 15.8208 10.5453 17.1366 10.5453C18.4525 10.5453 19.5192 11.6121 19.5192 12.928Z" fill="#F25321"/>
<path d="M23.9375 7.22069C23.9375 8.99951 22.4956 10.4414 20.7168 10.4414C18.9381 10.4414 17.4961 8.99951 17.4961 7.22069C17.4961 5.44205 18.9381 4.00001 20.7168 4.00001C22.4956 4.00001 23.9375 5.44205 23.9375 7.22069Z" fill="#634C9F"/>
<path d="M23.1557 12.1337C23.1557 12.7559 22.6514 13.2604 22.029 13.2604C21.4068 13.2604 20.9023 12.7559 20.9023 12.1337C20.9023 11.5115 21.4068 11.007 22.029 11.007C22.6514 11.007 23.1557 11.5115 23.1557 12.1337Z" fill="#634C9F"/>
<path d="M30.1459 8.85537C30.1459 10.2936 28.9798 11.4595 27.5416 11.4595C26.1033 11.4595 24.9375 10.2936 24.9375 8.85537C24.9375 7.41699 26.1033 6.25106 27.5416 6.25106C28.9798 6.25106 30.1459 7.41699 30.1459 8.85537Z" fill="#F25321"/>
<path d="M32.649 13.7452C32.649 14.9158 31.7 15.8646 30.5296 15.8646C29.359 15.8646 28.4102 14.9158 28.4102 13.7452C28.4102 12.5748 29.359 11.6258 30.5296 11.6258C31.7 11.6258 32.649 12.5748 32.649 13.7452Z" fill="#F25321"/>
<path d="M41.6451 14.6734C41.6451 15.844 40.6961 16.7928 39.5257 16.7928C38.3551 16.7928 37.4062 15.844 37.4062 14.6734C37.4062 13.503 38.3551 12.554 39.5257 12.554C40.6961 12.554 41.6451 13.503 41.6451 14.6734Z" fill="#634C9F"/>
<path d="M26.9118 14.1192C26.9118 14.8996 26.2793 15.5321 25.4989 15.5321C24.7186 15.5321 24.0859 14.8996 24.0859 14.1192C24.0859 13.3389 24.7186 12.7062 25.4989 12.7062C26.2793 12.7062 26.9118 13.3389 26.9118 14.1192Z" fill="#634C9F"/>
<path d="M35.4721 8.99387C35.4721 9.97312 34.6782 10.767 33.6989 10.767C32.7199 10.767 31.9258 9.97312 31.9258 8.99387C31.9258 8.01461 32.7199 7.2207 33.6989 7.2207C34.6782 7.2207 35.4721 8.01461 35.4721 8.99387Z" fill="#634C9F"/>
<path d="M36.2204 14.6734C36.2204 15.4537 35.5879 16.0863 34.8075 16.0863C34.0272 16.0863 33.3945 15.4537 33.3945 14.6734C33.3945 13.8931 34.0272 13.2604 34.8075 13.2604C35.5879 13.2604 36.2204 13.8931 36.2204 14.6734Z" fill="#634C9F"/>
<path d="M37.8591 11.4595C37.8591 12.1174 37.3257 12.6509 36.6678 12.6509C36.0098 12.6509 35.4766 12.1174 35.4766 11.4595C35.4766 10.8016 36.0098 10.2683 36.6678 10.2683C37.3257 10.2683 37.8591 10.8016 37.8591 11.4595Z" fill="#F25321"/>
</svg>
