<svg width="17" height="14" viewBox="0 0 17 14" fill="none" xmlns="http://www.w3.org/2000/svg">
<path d="M15.0122 3.59596C15.0228 3.69196 15.0282 3.83596 15.0282 4.02796C15.0282 5.13729 14.8255 6.23062 14.4202 7.30796C14.0042 8.43862 13.4068 9.44129 12.6282 10.316C11.7962 11.2546 10.8202 11.9853 9.70016 12.508C8.48416 13.0733 7.15082 13.356 5.70016 13.356C4.78282 13.356 3.89749 13.2306 3.04416 12.98C2.19082 12.7293 1.39616 12.364 0.660156 11.884C0.93749 11.916 1.20416 11.932 1.46016 11.932C2.20682 11.932 2.92949 11.8093 3.62816 11.564C4.32682 11.3186 4.95882 10.972 5.52416 10.524C4.80949 10.5133 4.17216 10.2946 3.61216 9.86796C3.05216 9.44129 2.66549 8.90262 2.45216 8.25196C2.66549 8.28396 2.87349 8.29996 3.07616 8.29996C3.39616 8.29996 3.68416 8.26262 3.94016 8.18796C3.43882 8.09196 2.99082 7.88929 2.59616 7.57996C2.20149 7.27062 1.88949 6.88929 1.66016 6.43596C1.43082 5.98262 1.31616 5.49462 1.31616 4.97196V4.92396C1.75349 5.17996 2.24416 5.31862 2.78816 5.33996C2.34016 5.05196 1.98549 4.66529 1.72416 4.17996C1.46282 3.69462 1.33216 3.17462 1.33216 2.61996C1.33216 2.02262 1.48149 1.46796 1.78016 0.955956C2.60149 1.96929 3.58816 2.77462 4.74016 3.37196C5.92416 3.97996 7.18816 4.32129 8.53216 4.39596C8.47882 4.12929 8.45216 3.87862 8.45216 3.64396C8.45216 3.04662 8.59882 2.49729 8.89216 1.99596C9.18549 1.49462 9.58282 1.09729 10.0842 0.803956C10.5855 0.510623 11.1348 0.363956 11.7322 0.363956C12.2015 0.363956 12.6442 0.45729 13.0602 0.643956C13.4762 0.830623 13.8335 1.08396 14.1322 1.40396C14.8895 1.25462 15.5828 0.987956 16.2122 0.603956C16.0948 0.987956 15.9108 1.33462 15.6602 1.64396C15.4095 1.95329 15.1135 2.20929 14.7722 2.41196C15.3802 2.34796 16.0095 2.17729 16.6602 1.89996C16.2122 2.56129 15.6628 3.12662 15.0122 3.59596Z" fill="white"/>
</svg>
