<svg width="124" height="28" viewBox="0 0 124 28" fill="none" xmlns="http://www.w3.org/2000/svg">
<rect width="123.84" height="28" rx="6" fill="url(#paint0_linear_6314_2768)"/>
<path d="M12.6974 18L10.2344 9.27273H11.9347L13.5071 15.6861H13.5881L15.267 9.27273H16.8139L18.4972 15.6903H18.5739L20.1463 9.27273H21.8466L19.3835 18H17.8239L16.0767 11.8764H16.0085L14.2571 18H12.6974ZM24.7844 18.1278C24.1282 18.1278 23.5614 17.9915 23.0841 17.7188C22.6097 17.4432 22.2446 17.054 21.9889 16.5511C21.7333 16.0455 21.6054 15.4503 21.6054 14.7656C21.6054 14.0923 21.7333 13.5014 21.9889 12.9929C22.2475 12.4815 22.6083 12.0838 23.0713 11.7997C23.5344 11.5128 24.0784 11.3693 24.7034 11.3693C25.1068 11.3693 25.4875 11.4347 25.8455 11.5653C26.2063 11.6932 26.5245 11.892 26.8 12.1619C27.0784 12.4318 27.2972 12.7756 27.4563 13.1932C27.6154 13.608 27.6949 14.1023 27.6949 14.6761V15.1491H22.3299V14.1094H26.2162C26.2134 13.8139 26.1495 13.5511 26.0245 13.321C25.8995 13.0881 25.7247 12.9048 25.5003 12.7713C25.2787 12.6378 25.0202 12.571 24.7247 12.571C24.4094 12.571 24.1324 12.6477 23.8938 12.8011C23.6551 12.9517 23.4691 13.1506 23.3355 13.3977C23.2049 13.642 23.1381 13.9105 23.1353 14.2031V15.1108C23.1353 15.4915 23.2049 15.8182 23.3441 16.0909C23.4833 16.3608 23.6779 16.5682 23.9279 16.7131C24.1779 16.8551 24.4705 16.9261 24.8057 16.9261C25.0301 16.9261 25.2333 16.8949 25.4151 16.8324C25.5969 16.767 25.7546 16.6719 25.8881 16.5469C26.0216 16.4219 26.1225 16.267 26.1907 16.0824L27.631 16.2443C27.5401 16.625 27.3668 16.9574 27.1111 17.2415C26.8583 17.5227 26.5344 17.7415 26.1395 17.8977C25.7446 18.0511 25.2929 18.1278 24.7844 18.1278ZM31.5777 18.1278C30.9214 18.1278 30.3547 17.9915 29.8774 17.7188C29.403 17.4432 29.0379 17.054 28.7822 16.5511C28.5265 16.0455 28.3987 15.4503 28.3987 14.7656C28.3987 14.0923 28.5265 13.5014 28.7822 12.9929C29.0408 12.4815 29.4015 12.0838 29.8646 11.7997C30.3277 11.5128 30.8717 11.3693 31.4967 11.3693C31.9001 11.3693 32.2808 11.4347 32.6388 11.5653C32.9996 11.6932 33.3177 11.892 33.5933 12.1619C33.8717 12.4318 34.0905 12.7756 34.2496 13.1932C34.4087 13.608 34.4882 14.1023 34.4882 14.6761V15.1491H29.1231V14.1094H33.0095C33.0067 13.8139 32.9427 13.5511 32.8177 13.321C32.6927 13.0881 32.518 12.9048 32.2936 12.7713C32.072 12.6378 31.8135 12.571 31.518 12.571C31.2027 12.571 30.9257 12.6477 30.6871 12.8011C30.4484 12.9517 30.2623 13.1506 30.1288 13.3977C29.9981 13.642 29.9314 13.9105 29.9285 14.2031V15.1108C29.9285 15.4915 29.9981 15.8182 30.1373 16.0909C30.2765 16.3608 30.4712 16.5682 30.7212 16.7131C30.9712 16.8551 31.2638 16.9261 31.599 16.9261C31.8234 16.9261 32.0265 16.8949 32.2084 16.8324C32.3902 16.767 32.5479 16.6719 32.6814 16.5469C32.8149 16.4219 32.9158 16.267 32.9839 16.0824L34.4243 16.2443C34.3334 16.625 34.1601 16.9574 33.9044 17.2415C33.6515 17.5227 33.3277 17.7415 32.9328 17.8977C32.5379 18.0511 32.0862 18.1278 31.5777 18.1278ZM36.8795 15.946L36.8752 14.0838H37.1224L39.4747 11.4545H41.2772L38.3838 14.6761H38.0641L36.8795 15.946ZM35.4732 18V9.27273H37.0159V18H35.4732ZM39.5812 18L37.4505 15.0213L38.4903 13.9347L41.4264 18H39.5812ZM44.6135 18.1278C43.9572 18.1278 43.3905 17.9915 42.9132 17.7188C42.4387 17.4432 42.0737 17.054 41.818 16.5511C41.5623 16.0455 41.4345 15.4503 41.4345 14.7656C41.4345 14.0923 41.5623 13.5014 41.818 12.9929C42.0765 12.4815 42.4373 12.0838 42.9004 11.7997C43.3635 11.5128 43.9075 11.3693 44.5325 11.3693C44.9359 11.3693 45.3166 11.4347 45.6745 11.5653C46.0353 11.6932 46.3535 11.892 46.6291 12.1619C46.9075 12.4318 47.1262 12.7756 47.2853 13.1932C47.4444 13.608 47.524 14.1023 47.524 14.6761V15.1491H42.1589V14.1094H46.0453C46.0424 13.8139 45.9785 13.5511 45.8535 13.321C45.7285 13.0881 45.5538 12.9048 45.3294 12.7713C45.1078 12.6378 44.8493 12.571 44.5538 12.571C44.2385 12.571 43.9615 12.6477 43.7228 12.8011C43.4842 12.9517 43.2981 13.1506 43.1646 13.3977C43.0339 13.642 42.9672 13.9105 42.9643 14.2031V15.1108C42.9643 15.4915 43.0339 15.8182 43.1731 16.0909C43.3123 16.3608 43.5069 16.5682 43.7569 16.7131C44.0069 16.8551 44.2995 16.9261 44.6348 16.9261C44.8592 16.9261 45.0623 16.8949 45.2441 16.8324C45.426 16.767 45.5836 16.6719 45.7172 16.5469C45.8507 16.4219 45.9515 16.267 46.0197 16.0824L47.4601 16.2443C47.3691 16.625 47.1959 16.9574 46.9402 17.2415C46.6873 17.5227 46.3635 17.7415 45.9686 17.8977C45.5737 18.0511 45.122 18.1278 44.6135 18.1278ZM50.0516 14.1648V18H48.509V11.4545H49.9835V12.5668H50.0602C50.2107 12.2003 50.4508 11.9091 50.7803 11.6932C51.1127 11.4773 51.5232 11.3693 52.0119 11.3693C52.4636 11.3693 52.857 11.4659 53.1923 11.6591C53.5303 11.8523 53.7917 12.1321 53.9764 12.4986C54.1639 12.8651 54.2562 13.3097 54.2533 13.8324V18H52.7107V14.071C52.7107 13.6335 52.5971 13.2912 52.3698 13.044C52.1454 12.7969 51.8343 12.6733 51.4366 12.6733C51.1667 12.6733 50.9266 12.733 50.7164 12.8523C50.509 12.9687 50.3457 13.1378 50.2264 13.3594C50.1099 13.581 50.0516 13.8494 50.0516 14.1648ZM57.9305 18.1151C57.4163 18.1151 56.9561 17.983 56.5498 17.7188C56.1436 17.4545 55.8225 17.071 55.5867 16.5682C55.351 16.0653 55.2331 15.4545 55.2331 14.7358C55.2331 14.0085 55.3524 13.3949 55.591 12.8949C55.8325 12.392 56.1578 12.0128 56.5669 11.7571C56.976 11.4986 57.4319 11.3693 57.9348 11.3693C58.3183 11.3693 58.6336 11.4347 58.8808 11.5653C59.1279 11.6932 59.324 11.848 59.4689 12.0298C59.6137 12.2088 59.726 12.3778 59.8055 12.5369H59.8694V9.27273H61.4163V18H59.8992V16.9688H59.8055C59.726 17.1278 59.6109 17.2969 59.4603 17.4759C59.3098 17.652 59.1109 17.8026 58.8637 17.9276C58.6166 18.0526 58.3055 18.1151 57.9305 18.1151ZM58.3609 16.8494C58.6876 16.8494 58.966 16.7614 59.1961 16.5852C59.4262 16.4062 59.601 16.1577 59.7203 15.8395C59.8396 15.5213 59.8992 15.1506 59.8992 14.7273C59.8992 14.304 59.8396 13.9361 59.7203 13.6236C59.6038 13.3111 59.4305 13.0682 59.2004 12.8949C58.9731 12.7216 58.6933 12.6349 58.3609 12.6349C58.0171 12.6349 57.7302 12.7244 57.5001 12.9034C57.27 13.0824 57.0967 13.3295 56.9802 13.6449C56.8637 13.9602 56.8055 14.321 56.8055 14.7273C56.8055 15.1364 56.8637 15.5014 56.9802 15.8224C57.0995 16.1406 57.2742 16.392 57.5044 16.5767C57.7373 16.7585 58.0228 16.8494 58.3609 16.8494ZM68.4222 18H65.4649V9.27273H68.4819C69.3484 9.27273 70.0927 9.44744 70.7149 9.79688C71.3399 10.1435 71.82 10.642 72.1552 11.2926C72.4904 11.9432 72.658 12.7216 72.658 13.6278C72.658 14.5369 72.489 15.3182 72.1509 15.9716C71.8157 16.625 71.3313 17.1264 70.6978 17.4759C70.0671 17.8253 69.3086 18 68.4222 18ZM67.0458 16.6321H68.3455C68.9535 16.6321 69.4606 16.5213 69.8668 16.2997C70.2731 16.0753 70.5785 15.7415 70.783 15.2983C70.9876 14.8523 71.0899 14.2955 71.0899 13.6278C71.0899 12.9602 70.9876 12.4062 70.783 11.9659C70.5785 11.5227 70.2759 11.1918 69.8754 10.973C69.4776 10.7514 68.9833 10.6406 68.3924 10.6406H67.0458V16.6321ZM73.772 18V11.4545H75.3146V18H73.772ZM74.5476 10.5256C74.3032 10.5256 74.093 10.4446 73.9169 10.2827C73.7407 10.1179 73.6527 9.92045 73.6527 9.69034C73.6527 9.45739 73.7407 9.25994 73.9169 9.09801C74.093 8.93324 74.3032 8.85085 74.5476 8.85085C74.7947 8.85085 75.0049 8.93324 75.1782 9.09801C75.3544 9.25994 75.4424 9.45739 75.4424 9.69034C75.4424 9.92045 75.3544 10.1179 75.1782 10.2827C75.0049 10.4446 74.7947 10.5256 74.5476 10.5256ZM81.7542 13.1847L80.3479 13.3381C80.3082 13.196 80.2386 13.0625 80.1391 12.9375C80.0425 12.8125 79.9119 12.7116 79.7471 12.6349C79.5823 12.5582 79.3806 12.5199 79.142 12.5199C78.821 12.5199 78.5511 12.5895 78.3323 12.7287C78.1164 12.8679 78.0099 13.0483 78.0127 13.2699C78.0099 13.4602 78.0795 13.6151 78.2215 13.7344C78.3664 13.8537 78.605 13.9517 78.9374 14.0284L80.0539 14.267C80.6732 14.4006 81.1335 14.6122 81.4346 14.902C81.7386 15.1918 81.892 15.571 81.8948 16.0398C81.892 16.4517 81.7712 16.8153 81.5326 17.1307C81.2968 17.4432 80.9687 17.6875 80.5482 17.8636C80.1278 18.0398 79.6448 18.1278 79.0994 18.1278C78.2982 18.1278 77.6533 17.9602 77.1647 17.625C76.6761 17.2869 76.3849 16.8168 76.2911 16.2145L77.7954 16.0696C77.8636 16.3651 78.0085 16.5881 78.23 16.7386C78.4516 16.8892 78.74 16.9645 79.0951 16.9645C79.4616 16.9645 79.7556 16.8892 79.9772 16.7386C80.2016 16.5881 80.3139 16.402 80.3139 16.1804C80.3139 15.9929 80.2414 15.8381 80.0965 15.7159C79.9545 15.5937 79.7329 15.5 79.4318 15.4347L78.3153 15.2003C77.6874 15.0696 77.2229 14.8494 76.9218 14.5398C76.6207 14.2273 76.4715 13.8324 76.4744 13.3551C76.4715 12.9517 76.5809 12.6023 76.8025 12.3068C77.0269 12.0085 77.338 11.7784 77.7357 11.6165C78.1363 11.4517 78.5979 11.3693 79.1207 11.3693C79.8877 11.3693 80.4914 11.5327 80.9318 11.8594C81.3749 12.1861 81.6491 12.6278 81.7542 13.1847ZM85.7019 18.1278C85.0485 18.1278 84.4875 17.9844 84.0187 17.6974C83.5528 17.4105 83.1934 17.0142 82.9406 16.5085C82.6906 16 82.5656 15.4148 82.5656 14.7528C82.5656 14.0881 82.6934 13.5014 82.9491 12.9929C83.2048 12.4815 83.5656 12.0838 84.0315 11.7997C84.5002 11.5128 85.0542 11.3693 85.6934 11.3693C86.2247 11.3693 86.6948 11.4673 87.1039 11.6634C87.5159 11.8565 87.844 12.1307 88.0883 12.4858C88.3326 12.8381 88.4718 13.25 88.5059 13.7216H87.0315C86.9718 13.4062 86.8298 13.1435 86.6054 12.9332C86.3838 12.7202 86.0869 12.6136 85.7147 12.6136C85.3994 12.6136 85.1224 12.6989 84.8838 12.8693C84.6451 13.0369 84.4591 13.2784 84.3255 13.5938C84.1948 13.9091 84.1295 14.2869 84.1295 14.7273C84.1295 15.1733 84.1948 15.5568 84.3255 15.8778C84.4562 16.196 84.6394 16.4418 84.8752 16.6151C85.1139 16.7855 85.3937 16.8707 85.7147 16.8707C85.942 16.8707 86.1451 16.8281 86.3241 16.7429C86.5059 16.6548 86.6579 16.5284 86.7801 16.3636C86.9022 16.1989 86.986 15.9986 87.0315 15.7628H88.5059C88.469 16.2259 88.3326 16.6364 88.0968 16.9943C87.861 17.3494 87.54 17.6278 87.1338 17.8295C86.7275 18.0284 86.2502 18.1278 85.7019 18.1278ZM92.3077 18.1278C91.6685 18.1278 91.1145 17.9872 90.6458 17.706C90.177 17.4247 89.8134 17.0312 89.5549 16.5256C89.2992 16.0199 89.1714 15.429 89.1714 14.7528C89.1714 14.0767 89.2992 13.4844 89.5549 12.9759C89.8134 12.4673 90.177 12.0724 90.6458 11.7912C91.1145 11.5099 91.6685 11.3693 92.3077 11.3693C92.9469 11.3693 93.5009 11.5099 93.9697 11.7912C94.4384 12.0724 94.8006 12.4673 95.0563 12.9759C95.3148 13.4844 95.4441 14.0767 95.4441 14.7528C95.4441 15.429 95.3148 16.0199 95.0563 16.5256C94.8006 17.0312 94.4384 17.4247 93.9697 17.706C93.5009 17.9872 92.9469 18.1278 92.3077 18.1278ZM92.3163 16.892C92.6628 16.892 92.9526 16.7969 93.1856 16.6065C93.4185 16.4134 93.5918 16.1548 93.7055 15.831C93.8219 15.5071 93.8802 15.1463 93.8802 14.7486C93.8802 14.348 93.8219 13.9858 93.7055 13.6619C93.5918 13.3352 93.4185 13.0753 93.1856 12.8821C92.9526 12.6889 92.6628 12.5923 92.3163 12.5923C91.9611 12.5923 91.6657 12.6889 91.4299 12.8821C91.1969 13.0753 91.0222 13.3352 90.9057 13.6619C90.7921 13.9858 90.7353 14.348 90.7353 14.7486C90.7353 15.1463 90.7921 15.5071 90.9057 15.831C91.0222 16.1548 91.1969 16.4134 91.4299 16.6065C91.6657 16.7969 91.9611 16.892 92.3163 16.892ZM100.605 15.2472V11.4545H102.148V18H100.652V16.8366H100.584C100.436 17.2031 100.193 17.5028 99.8553 17.7358C99.52 17.9687 99.1067 18.0852 98.6152 18.0852C98.1862 18.0852 97.807 17.9901 97.4774 17.7997C97.1507 17.6065 96.895 17.3267 96.7104 16.9602C96.5257 16.5909 96.4334 16.1449 96.4334 15.6222V11.4545H97.976V15.3835C97.976 15.7983 98.0896 16.1278 98.3169 16.3722C98.5442 16.6165 98.8425 16.7386 99.2118 16.7386C99.4391 16.7386 99.6592 16.6832 99.8723 16.5724C100.085 16.4616 100.26 16.2969 100.396 16.0781C100.536 15.8565 100.605 15.5795 100.605 15.2472ZM104.957 14.1648V18H103.414V11.4545H104.889V12.5668H104.965C105.116 12.2003 105.356 11.9091 105.685 11.6932C106.018 11.4773 106.428 11.3693 106.917 11.3693C107.369 11.3693 107.762 11.4659 108.097 11.6591C108.435 11.8523 108.697 12.1321 108.882 12.4986C109.069 12.8651 109.161 13.3097 109.158 13.8324V18H107.616V14.071C107.616 13.6335 107.502 13.2912 107.275 13.044C107.051 12.7969 106.739 12.6733 106.342 12.6733C106.072 12.6733 105.832 12.733 105.622 12.8523C105.414 12.9687 105.251 13.1378 105.132 13.3594C105.015 13.581 104.957 13.8494 104.957 14.1648ZM113.675 11.4545V12.6477H109.912V11.4545H113.675ZM110.841 9.88636H112.384V16.0312C112.384 16.2386 112.415 16.3977 112.478 16.5085C112.543 16.6165 112.628 16.6903 112.733 16.7301C112.838 16.7699 112.955 16.7898 113.083 16.7898C113.179 16.7898 113.267 16.7827 113.347 16.7685C113.429 16.7543 113.492 16.7415 113.535 16.7301L113.794 17.9361C113.712 17.9645 113.594 17.9957 113.441 18.0298C113.29 18.0639 113.106 18.0838 112.887 18.0895C112.5 18.1009 112.152 18.0426 111.843 17.9148C111.533 17.7841 111.287 17.5824 111.106 17.3097C110.927 17.0369 110.838 16.696 110.841 16.2869V9.88636Z" fill="#166534"/>
<defs>
<linearGradient id="paint0_linear_6314_2768" x1="0" y1="14" x2="123.84" y2="14" gradientUnits="userSpaceOnUse">
<stop stop-color="#16A34A" stop-opacity="0.5"/>
<stop offset="0.6" stop-color="#22C55E" stop-opacity="0"/>
</linearGradient>
</defs>
</svg>
